<?xml version="1.0" encoding="iso-8859-1"?>
<!-- Generator: Adobe Illustrator 19.0.0, SVG Export Plug-In . SVG Version: 6.00 Build 0)  -->
<svg version="1.1" id="Capa_1" xmlns="http://www.w3.org/2000/svg" xmlns:xlink="http://www.w3.org/1999/xlink" x="0px" y="0px"
	 viewBox="0 0 512 512" style="enable-background:new 0 0 512 512;" xml:space="preserve">
<path style="fill:#FED2A4;" d="M447.963,189.901C437.764,83.401,348.064,0,238.864,0c-9.901,0-20.099,0.601-30.3,2.1
	c-88.799,12.599-161.4,82.5-176.4,170.7c-11.7,68.101,8.701,135,56.4,183.9c19.501,19.799,30.3,45.899,30.3,73.2V512h210v-62h90V330
	h64.2C480.964,322.2,454.564,217.2,447.963,189.901z"/>
<path style="fill:#FFBD86;" d="M483.064,330h-64.2v120h-90v62h-90V0c109.2,0,198.9,83.401,209.099,189.901
	C454.564,217.2,480.964,322.2,483.064,330z"/>
<path style="fill:#78FCF8;" d="M283.864,105c-16.2,0-31.8,4.5-45,12c25.93,15.15,43.93,43.03,44.96,75.12
	c26.87,15.61,45.04,44.73,45.04,77.88c0,0.97-0.02,1.93-0.05,2.89c26.88-15.61,45.05-44.73,45.05-77.89
	C373.864,145.5,333.364,105,283.864,105z"/>
<path style="fill:#FDBF00;" d="M193.864,105c-49.5,0-90,40.5-90,90c0,33.16,18.17,62.28,45.05,77.89c-0.03-0.96-0.05-1.92-0.05-2.89
	c0-33.15,18.17-62.27,45.04-77.88c1.03-32.09,19.03-59.97,44.96-75.12C225.664,109.5,210.064,105,193.864,105z"/>
<path style="fill:#6AE390;" d="M283.824,192.12c-13.25-7.71-28.61-12.12-44.96-12.12s-31.71,4.41-44.96,12.12
	c1.03-32.09,19.03-59.97,44.96-75.12C264.794,132.15,282.794,160.03,283.824,192.12z"/>
<path style="fill:#FF7816;" d="M283.864,285c-16.2,0-31.8-4.5-45-12c-13.2,7.5-28.8,12-45,12c-16.34,0-31.7-4.41-44.95-12.11
	c1.54,48.18,41.42,87.11,89.95,87.11s88.41-38.93,89.95-87.11C315.564,280.59,300.204,285,283.864,285z"/>
<path style="fill:#FF4B00;" d="M328.814,272.89c-13.25,7.7-28.61,12.11-44.95,12.11c-16.2,0-31.8-4.5-45-12v87
	C287.394,360,327.274,321.07,328.814,272.89z"/>
<path style="fill:#725D57;" d="M283.864,195c0,33.3-18.3,62.4-45,78c-26.7-15.6-45-44.7-45-78c0-0.96,0.02-1.92,0.04-2.88
	c13.25-7.71,28.61-12.12,44.96-12.12s31.71,4.41,44.96,12.12C283.844,193.08,283.864,194.04,283.864,195z"/>
<path style="fill:#68544F;" d="M283.864,195c0-0.96-0.02-1.92-0.04-2.88c-13.25-7.71-28.61-12.12-44.96-12.12v93
	C265.564,257.4,283.864,228.3,283.864,195z"/>
<path style="fill:#40DA80;" d="M283.824,192.12c-1.03-32.09-19.03-59.97-44.96-75.12v63C255.214,180,270.574,184.41,283.824,192.12z
	"/>
<path style="fill:#FF7C96;" d="M328.864,270c0,0.97-0.02,1.93-0.05,2.89c-13.25,7.7-28.61,12.11-44.95,12.11c-16.2,0-31.8-4.5-45-12
	c26.7-15.6,45-44.7,45-78c0-0.96-0.02-1.92-0.04-2.88C310.694,207.73,328.864,236.85,328.864,270z"/>
<path style="fill:#FF9F00;" d="M238.864,273c-13.2,7.5-28.8,12-45,12c-16.34,0-31.7-4.41-44.95-12.11
	c-0.03-0.96-0.05-1.92-0.05-2.89c0-33.15,18.17-62.27,45.04-77.88c-0.02,0.96-0.04,1.92-0.04,2.88
	C193.864,228.3,212.164,257.4,238.864,273z"/>
<g>
</g>
<g>
</g>
<g>
</g>
<g>
</g>
<g>
</g>
<g>
</g>
<g>
</g>
<g>
</g>
<g>
</g>
<g>
</g>
<g>
</g>
<g>
</g>
<g>
</g>
<g>
</g>
<g>
</g>
</svg>
