<?xml version="1.0" encoding="iso-8859-1"?>
<!-- Generator: Adobe Illustrator 19.0.0, SVG Export Plug-In . SVG Version: 6.00 Build 0)  -->
<svg version="1.1" id="Capa_1" xmlns="http://www.w3.org/2000/svg" xmlns:xlink="http://www.w3.org/1999/xlink" x="0px" y="0px"
	 viewBox="0 0 512.001 512.001" style="enable-background:new 0 0 512.001 512.001;" xml:space="preserve">
<path style="fill:#FFCCAA;" d="M43.16,131.785l5.754,46.861l-22.089,2.712c-10.404,1.277-17.802,10.747-16.525,21.151l0,0
	c1.277,10.404,10.747,17.802,21.151,16.525l22.089-2.712l2.355,19.18c5.605,45.646,47.151,78.105,92.797,72.501l0,0
	c45.646-5.605,78.105-47.151,72.501-92.797l-12.735-103.717L43.16,131.785z"/>
<path style="fill:#F2A077;" d="M182.366,114.693l12.735,103.716c5.059,41.205-20.905,79.061-59.582,90.161
	c4.333,0.152,8.732-0.022,13.173-0.568l0,0c45.646-5.605,78.105-47.151,72.501-92.797l-12.735-103.717L182.366,114.693z"/>
<g>
	<path style="fill:#475D6D;" d="M93.578,199.784c-1.615,0-3.241-0.519-4.612-1.59c-3.264-2.55-3.843-7.263-1.293-10.527
		c3.672-4.701,8.956-7.69,14.877-8.417c5.922-0.724,11.771,0.896,16.471,4.568c3.264,2.55,3.843,7.264,1.293,10.527
		c-2.551,3.264-7.264,3.843-10.527,1.293c-1.543-1.206-3.466-1.739-5.409-1.5c-1.944,0.239-3.679,1.22-4.885,2.764
		C98.014,198.793,95.807,199.784,93.578,199.784z"/>
	<path style="fill:#475D6D;" d="M172.895,190.044c-1.615,0-3.241-0.52-4.612-1.59c-3.264-2.55-3.843-7.264-1.292-10.528
		c7.582-9.704,21.645-11.43,31.348-3.849c3.264,2.55,3.843,7.263,1.293,10.527c-2.55,3.264-7.264,3.843-10.527,1.293
		c-3.186-2.49-7.804-1.923-10.293,1.264C177.331,189.055,175.124,190.044,172.895,190.044z"/>
</g>
<path style="fill:#CE3A4C;" d="M158.949,263.587L158.949,263.587c-14.439,1.773-27.581-8.495-29.354-22.934l-0.882-7.182
	c-0.268-2.186,1.286-4.176,3.472-4.444l44.372-5.448c2.186-0.268,4.176,1.286,4.444,3.472l0.882,7.182
	C183.655,248.672,173.388,261.815,158.949,263.587z"/>
<path style="fill:#475D6D;" d="M209.585,120.675L59.25,139.133c-8.269,1.015-14.138,8.539-13.124,16.798l2.789,22.714l-22.09,2.712
	c-1.715,0.211-3.343,0.642-4.876,1.273L9.189,78.706c-1.805-14.703,8.649-28.084,23.352-29.889L145.563,34.94
	C171.341,31.774,195.032,19.808,205.21,0C265.426,23.945,249.739,115.744,209.585,120.675z"/>
<path style="fill:#2C3F4F;" d="M205.21,0c-2.428,4.724-5.631,8.997-9.441,12.816c40.114,32.664,23.785,106.634-12.148,111.046
	l25.964-3.188C249.739,115.744,265.426,23.945,205.21,0z"/>
<path style="fill:#FFCCAA;" d="M468.842,335.153l-5.754,46.861l22.089,2.712c10.404,1.277,17.802,10.747,16.525,21.151l0,0
	c-1.277,10.404-10.747,17.802-21.151,16.525l-22.089-2.712l-2.355,19.18c-5.605,45.646-47.151,78.105-92.797,72.501l0,0
	c-45.646-5.605-78.105-47.151-72.501-92.797l12.735-103.717L468.842,335.153z"/>
<path style="fill:#F2A077;" d="M485.177,384.727l-22.089-2.712l5.754-46.861l-165.297-20.296l140.806,17.289l-5.754,46.861
	l-4.626,37.676l-2.355,19.18c-5.331,43.417-38.223,75.487-74.883,74.409c2.163,0.441,4.349,0.825,6.578,1.099l0,0
	c45.646,5.605,87.192-26.855,92.797-72.501l2.355-19.18l22.089,2.712c10.404,1.278,19.873-6.121,21.151-16.525
	C502.979,395.474,495.581,386.004,485.177,384.727z"/>
<g>
	<path style="fill:#475D6D;" d="M418.424,403.152c-2.23,0-4.436-0.99-5.916-2.883c-2.489-3.186-7.106-3.753-10.293-1.264
		c-3.264,2.549-7.978,1.971-10.527-1.293c-2.55-3.264-1.971-7.977,1.293-10.527c9.705-7.581,23.767-5.854,31.348,3.849
		c2.55,3.264,1.971,7.978-1.292,10.528C421.666,402.632,420.039,403.152,418.424,403.152z"/>
	<path style="fill:#475D6D;" d="M339.107,393.413c-2.23,0-4.437-0.99-5.916-2.883c-1.206-1.543-2.94-2.525-4.885-2.764
		c-1.944-0.24-3.865,0.293-5.409,1.5c-3.265,2.55-7.978,1.971-10.527-1.293c-2.55-3.264-1.971-7.977,1.293-10.527
		c4.7-3.672,10.549-5.294,16.471-4.568c5.921,0.727,11.205,3.716,14.877,8.417c2.55,3.264,1.971,7.977-1.293,10.527
		C342.349,392.894,340.722,393.413,339.107,393.413z"/>
</g>
<path style="fill:#CE3A4C;" d="M353.053,466.956L353.053,466.956c14.439,1.773,27.581-8.495,29.354-22.934l0.882-7.182
	c0.268-2.186-1.286-4.176-3.472-4.444l-44.372-5.448c-2.186-0.268-4.176,1.286-4.444,3.472l-0.882,7.182
	C328.347,452.041,338.614,465.183,353.053,466.956z"/>
<path style="fill:#BE6351;" d="M479.461,252.185L373.292,239.15c-6.133-0.753-11.657-4.048-15.269-9.061
	c-9.914-13.758-25.636-23.267-44.107-24.61c-30.542-2.221-58.135,19.6-63.04,49.827c-5.447,33.569,18.102,64.633,51.54,68.738
	l150.335,18.459c8.263,1.015,14.139,8.535,13.124,16.798l-2.789,22.714l22.09,2.712c1.715,0.211,3.343,0.642,4.876,1.273
	l12.76-103.925C504.618,267.372,494.163,253.991,479.461,252.185z"/>
<path style="fill:#AA473A;" d="M479.461,252.185l-19.21-2.359c14.702,1.805,25.157,15.187,23.352,29.889l-12.679,103.261
	l14.252,1.75c1.715,0.211,3.343,0.642,4.876,1.273l12.76-103.925C504.618,267.372,494.163,253.991,479.461,252.185z"/>
<g>
	<path style="fill:#8BA7BC;" d="M394.029,91.226c-4.142,0-7.5-3.358-7.5-7.5V64.813c0-4.142,3.358-7.5,7.5-7.5s7.5,3.358,7.5,7.5
		v18.913C401.529,87.868,398.171,91.226,394.029,91.226z"/>
	<path style="fill:#8BA7BC;" d="M394.029,149.366c-4.142,0-7.5-3.358-7.5-7.5v-18.913c0-4.142,3.358-7.5,7.5-7.5s7.5,3.358,7.5,7.5
		v18.913C401.529,146.008,398.171,149.366,394.029,149.366z"/>
	<path style="fill:#8BA7BC;" d="M432.556,110.839h-18.913c-4.142,0-7.5-3.358-7.5-7.5s3.358-7.5,7.5-7.5h18.913
		c4.142,0,7.5,3.358,7.5,7.5S436.698,110.839,432.556,110.839z"/>
	<path style="fill:#8BA7BC;" d="M374.416,110.839h-18.913c-4.142,0-7.5-3.358-7.5-7.5s3.358-7.5,7.5-7.5h18.913
		c4.142,0,7.5,3.358,7.5,7.5S378.558,110.839,374.416,110.839z"/>
	<path style="fill:#8BA7BC;" d="M117.973,396.547c-4.142,0-7.5-3.358-7.5-7.5v-18.913c0-4.142,3.358-7.5,7.5-7.5s7.5,3.358,7.5,7.5
		v18.913C125.473,393.189,122.115,396.547,117.973,396.547z"/>
	<path style="fill:#8BA7BC;" d="M117.973,454.688c-4.142,0-7.5-3.358-7.5-7.5v-18.913c0-4.142,3.358-7.5,7.5-7.5s7.5,3.358,7.5,7.5
		v18.913C125.473,451.33,122.115,454.688,117.973,454.688z"/>
	<path style="fill:#8BA7BC;" d="M156.5,416.161h-18.913c-4.142,0-7.5-3.358-7.5-7.5s3.358-7.5,7.5-7.5H156.5
		c4.142,0,7.5,3.358,7.5,7.5S160.642,416.161,156.5,416.161z"/>
	<path style="fill:#8BA7BC;" d="M98.359,416.161H79.446c-4.142,0-7.5-3.358-7.5-7.5s3.358-7.5,7.5-7.5h18.913
		c4.142,0,7.5,3.358,7.5,7.5S102.501,416.161,98.359,416.161z"/>
</g>
<g>
</g>
<g>
</g>
<g>
</g>
<g>
</g>
<g>
</g>
<g>
</g>
<g>
</g>
<g>
</g>
<g>
</g>
<g>
</g>
<g>
</g>
<g>
</g>
<g>
</g>
<g>
</g>
<g>
</g>
</svg>
