<svg height="512pt" viewBox="0 -91 512 512" width="512pt" xmlns="http://www.w3.org/2000/svg"><path d="m512 258.917969c-10.800781 6-21 11.402343-31.5 16.5-77.699219 37.800781-151.902344 54.601562-224.5 54.601562-72.300781 0-146.800781-16.800781-224.800781-54.902343-10.199219-5.097657-20.699219-10.199219-31.199219-16.199219 52.800781-31.800781 136.902344-108.898438 256-108.898438 114.300781 0 196.902344 73.5 256 108.898438zm0 0" fill="#deecf1"/><path d="m512 258.917969c-10.800781 6-21 11.402343-31.5 16.5-77.699219 37.800781-151.902344 54.601562-224.5 54.601562v-180c114.300781 0 196.902344 73.5 256 108.898438zm0 0" fill="#c6e2e7"/><path d="m361 225.019531c0 57.898438-47.101562 105-105 105s-105-47.101562-105-105c0-57.902343 47.101562-105 105-105s105 47.101563 105 105zm0 0" fill="#b03244"/><path d="m361 225.019531c0 57.898438-47.101562 105-105 105v-210c57.898438 0 105 47.101563 105 105zm0 0" fill="#962a3a"/><path d="m512 105.617188-156.699219-49.5-99.300781 18.902343-185.398438 35.097657c-21.902343 4.503906-45.101562-1.199219-61.902343-15-15.597657-12.597657-9-37.199219 10.199219-40.796876l237.101562-41.402343 68.699219-12c15.902343-2.699219 31.800781.601562 44.703125 9.300781zm0 0" fill="#6e6e6e"/><path d="m355.300781 56.117188-99.300781 18.902343v-62.101562l68.699219-12c15.902343-2.699219 31.800781.601562 44.703125 9.300781l142.597656 95.398438zm0 0" fill="#5a5a5a"/><path d="m512 258.917969c-59.097656-35.398438-141.699219-78.898438-256-78.898438-59.398438 0-110.097656 11.699219-152.402344 27.597657-42.296875 15.601562-77.199218 35.402343-103.597656 51.300781 68.101562-75 154.300781-138.898438 256-138.898438s187.898438 63.898438 256 138.898438zm0 0" fill="#ffbfab"/><path d="m512 258.917969c-59.097656-35.398438-141.699219-78.898438-256-78.898438v-60c101.699219 0 187.898438 63.898438 256 138.898438zm0 0" fill="#ffa78f"/><path d="m256 180.019531c-24.902344 0-45 20.097657-45 45 0 24.898438 20.097656 45 45 45s45-20.101562 45-45c0-24.902343-20.097656-45-45-45zm0 0" fill="#444"/><path d="m301 225.019531c0 24.898438-20.097656 45-45 45v-90c24.902344 0 45 20.097657 45 45zm0 0" fill="#292929"/></svg>