<?xml version="1.0" encoding="UTF-8" standalone="no"?><!DOCTYPE svg PUBLIC "-//W3C//DTD SVG 1.1//EN" "http://www.w3.org/Graphics/SVG/1.1/DTD/svg11.dtd"><svg width="100%" height="100%" viewBox="0 0 500 400" version="1.1" xmlns="http://www.w3.org/2000/svg" xmlns:xlink="http://www.w3.org/1999/xlink" xml:space="preserve" xmlns:serif="http://www.serif.com/" style="fill-rule:evenodd;clip-rule:evenodd;stroke-linecap:round;"><g id="RML"><circle id="Oval-1" cx="250" cy="203.094" r="143.094" style="fill:none;stroke:url(#_Linear1);stroke-width:8px;stroke-dasharray:100,25,1,15;"/><g id="Rectangle-1"><path id="path-6" d="M375.769,321.979c0,-17.036 -13.83,-30.866 -30.866,-30.866l-186.456,0c-17.036,0 -30.866,13.83 -30.866,30.866c0,17.036 13.83,30.867 30.866,30.867l186.456,0c17.036,0 30.866,-13.831 30.866,-30.867Z" style="fill:url(#_Linear2);"/><path id="path-61" serif:id="path-6" d="M375.769,321.979c0,-17.036 -13.83,-30.866 -30.866,-30.866l-186.456,0c-17.036,0 -30.866,13.83 -30.866,30.866c0,17.036 13.83,30.867 30.866,30.867l186.456,0c17.036,0 30.866,-13.831 30.866,-30.867Z" style="fill:url(#_Linear3);"/><path id="path-62" serif:id="path-6" d="M375.769,321.979c0,-17.036 -13.83,-30.866 -30.866,-30.866l-186.456,0c-17.036,0 -30.866,13.83 -30.866,30.866c0,17.036 13.83,30.867 30.866,30.867l186.456,0c17.036,0 30.866,-13.831 30.866,-30.867Z" style="fill:url(#_Linear4);"/><path id="path-63" serif:id="path-6" d="M375.769,321.979c0,-17.036 -13.83,-30.866 -30.866,-30.866l-186.456,0c-17.036,0 -30.866,13.83 -30.866,30.866c0,17.036 13.83,30.867 30.866,30.867l186.456,0c17.036,0 30.866,-13.831 30.866,-30.867Z" style="fill:url(#_Linear5);"/></g><path id="Star-1" d="M250,231.871l-36.478,19.177c-4.885,2.569 -8.089,0.239 -7.157,-5.199l6.967,-40.619l-29.511,-28.766c-3.953,-3.853 -2.727,-7.62 2.734,-8.413l40.783,-5.927l18.239,-36.955c2.443,-4.95 6.404,-4.948 8.846,0l18.239,36.955l40.783,5.927c5.463,0.793 6.685,4.562 2.734,8.413l-29.511,28.766l6.967,40.619c0.933,5.44 -2.274,7.767 -7.157,5.199l-36.478,-19.177Z" style="fill:none;stroke:url(#_Linear6);stroke-width:5px;stroke-linecap:butt;"/><path id="Star-11" serif:id="Star-1" d="M42.183,159.827l-10.017,5.267c-3.908,2.054 -6.47,0.184 -5.725,-4.16l1.913,-11.154l-8.104,-7.9c-3.162,-3.082 -2.175,-6.096 2.187,-6.73l11.2,-1.627l5.008,-10.149c1.954,-3.959 5.126,-3.952 7.076,0l5.009,10.149l11.2,1.627c4.369,0.635 5.343,3.654 2.187,6.73l-8.105,7.9l1.914,11.154c0.746,4.352 -1.824,6.21 -5.725,4.16l-10.018,-5.267Z" style="fill:#eddec2;"/><path id="Star-12" serif:id="Star-1" d="M439.247,95.591c-1.464,-0.77 -3.832,-0.774 -5.304,0l-2.042,1.073c-1.464,0.77 -2.426,0.08 -2.145,-1.559l0.896,-5.226l-3.797,-3.702c-1.185,-1.155 -0.826,-2.283 0.819,-2.522l5.248,-0.763l2.347,-4.756c0.733,-1.483 1.916,-1.491 2.652,0l2.347,4.756l5.248,0.763c1.638,0.238 2.011,1.361 0.82,2.522l-3.798,3.702l0.897,5.226c0.28,1.631 -0.674,2.333 -2.146,1.559l-2.042,-1.073Z" style="fill:#99e9ee;"/><path id="Star-13" serif:id="Star-1" d="M488.009,168.504c-1.469,-0.772 -3.848,-0.773 -5.317,0l-3.504,1.842c-1.468,0.771 -2.431,0.073 -2.15,-1.563l1.177,-6.861l-4.985,-4.859c-1.188,-1.158 -0.821,-2.29 0.821,-2.529l6.889,-1.001l3.081,-6.242c0.734,-1.488 1.924,-1.488 2.658,0l3.081,6.242l6.89,1.001c1.641,0.239 2.009,1.37 0.821,2.529l-4.985,4.859l1.177,6.861c0.28,1.635 -0.682,2.335 -2.151,1.563l-3.503,-1.842Z" style="fill:#5879ff;"/><path id="Star-14" serif:id="Star-1" d="M380.694,51.586l-6.512,3.423c-1.958,1.029 -3.241,0.09 -2.868,-2.084l1.243,-7.251l-5.267,-5.134c-1.585,-1.545 -1.087,-3.055 1.095,-3.373l7.28,-1.057l3.256,-6.597c0.979,-1.984 2.569,-1.978 3.546,0l3.255,6.597l7.28,1.057c2.189,0.319 2.675,1.833 1.096,3.373l-5.268,5.134l1.243,7.251c0.374,2.18 -0.916,3.11 -2.868,2.084l-6.511,-3.423Z" style="fill:#df91a7;"/><path id="Star-15" serif:id="Star-1" d="M15.305,237.812l-6.512,3.424c-1.958,1.029 -3.241,0.089 -2.868,-2.084l1.243,-7.251l-5.267,-5.135c-1.585,-1.544 -1.087,-3.055 1.095,-3.372l7.28,-1.058l3.256,-6.596c0.979,-1.984 2.569,-1.978 3.546,0l3.255,6.596l7.28,1.058c2.189,0.318 2.675,1.833 1.096,3.372l-5.268,5.135l1.244,7.251c0.373,2.18 -0.917,3.11 -2.869,2.084l-6.511,-3.424Z" style="fill:#81e9ee;"/><path id="RATE-MY-LIFE" d="M155.555,332.949c0,0.44 0.12,0.775 0.36,1.005c0.24,0.23 0.58,0.345 1.02,0.345l0.66,0c0.44,0 0.775,-0.115 1.005,-0.345c0.23,-0.23 0.345,-0.565 0.345,-1.005l0,-6.42l4.5,0l4.02,6.42c0.32,0.46 0.605,0.8 0.855,1.02c0.25,0.22 0.595,0.33 1.035,0.33l0.81,0c0.44,0 0.78,-0.155 1.02,-0.465c0.24,-0.31 0.17,-0.765 -0.21,-1.365l-4.08,-6.36c1.44,-0.44 2.535,-1.205 3.285,-2.295c0.75,-1.09 1.125,-2.385 1.125,-3.885c0,-1.96 -0.635,-3.495 -1.905,-4.605c-1.27,-1.11 -3.105,-1.665 -5.505,-1.665l-6.96,0c-0.44,0 -0.78,0.115 -1.02,0.345c-0.24,0.23 -0.36,0.565 -0.36,1.005l0,17.94Zm3.39,-9.21l0,-7.26l4.92,0c1.28,0 2.27,0.315 2.97,0.945c0.7,0.63 1.05,1.475 1.05,2.535c0,1.06 -0.34,1.955 -1.02,2.685c-0.68,0.73 -1.68,1.095 -3,1.095l-4.92,0Zm14.94,9.03c-0.2,0.52 -0.2,0.905 0,1.155c0.2,0.25 0.54,0.375 1.02,0.375l0.72,0c0.44,0 0.77,-0.105 0.99,-0.315c0.22,-0.21 0.41,-0.535 0.57,-0.975l1.35,-3.81l8.76,0l1.35,3.81c0.16,0.44 0.35,0.765 0.57,0.975c0.22,0.21 0.55,0.315 0.99,0.315l0.9,0c0.48,0 0.815,-0.125 1.005,-0.375c0.19,-0.25 0.195,-0.635 0.015,-1.155l-6.57,-17.76c-0.16,-0.44 -0.39,-0.775 -0.69,-1.005c-0.3,-0.23 -0.7,-0.345 -1.2,-0.345l-1.35,0c-0.5,0 -0.885,0.115 -1.155,0.345c-0.27,0.23 -0.485,0.565 -0.645,1.005l-6.63,17.76Zm5.64,-6.39l3.36,-9.36l0.12,0l3.3,9.36l-6.78,0Zm20.46,6.57c0,0.44 0.12,0.775 0.36,1.005c0.24,0.23 0.58,0.345 1.02,0.345l0.66,0c0.44,0 0.775,-0.115 1.005,-0.345c0.23,-0.23 0.345,-0.565 0.345,-1.005l0,-16.44l5.91,0c0.4,0 0.7,-0.1 0.9,-0.3c0.2,-0.2 0.3,-0.49 0.3,-0.87l0,-0.51c0,-0.38 -0.1,-0.67 -0.3,-0.87c-0.2,-0.2 -0.5,-0.3 -0.9,-0.3l-15.21,0c-0.38,0 -0.67,0.1 -0.87,0.3c-0.2,0.2 -0.3,0.49 -0.3,0.87l0,0.51c0,0.38 0.1,0.67 0.3,0.87c0.2,0.2 0.49,0.3 0.87,0.3l5.91,0l0,16.44Zm13.26,0c0,0.44 0.12,0.775 0.36,1.005c0.24,0.23 0.58,0.345 1.02,0.345l12.15,0c0.38,0 0.675,-0.1 0.885,-0.3c0.21,-0.2 0.315,-0.49 0.315,-0.87l0,-0.51c0,-0.38 -0.105,-0.675 -0.315,-0.885c-0.21,-0.21 -0.505,-0.315 -0.885,-0.315l-10.14,0l0,-6.24l7.71,0c0.38,0 0.67,-0.095 0.87,-0.285c0.2,-0.19 0.3,-0.475 0.3,-0.855l0,-0.51c0,-0.38 -0.1,-0.665 -0.3,-0.855c-0.2,-0.19 -0.49,-0.285 -0.87,-0.285l-7.71,0l0,-5.85l9.87,0c0.4,0 0.7,-0.105 0.9,-0.315c0.2,-0.21 0.3,-0.505 0.3,-0.885l0,-0.51c0,-0.38 -0.1,-0.67 -0.3,-0.87c-0.2,-0.2 -0.5,-0.3 -0.9,-0.3l-11.88,0c-0.44,0 -0.78,0.115 -1.02,0.345c-0.24,0.23 -0.36,0.565 -0.36,1.005l0,17.94Zm25.02,0c0,0.44 0.12,0.775 0.36,1.005c0.24,0.23 0.58,0.345 1.02,0.345l0.66,0c0.44,0 0.78,-0.115 1.02,-0.345c0.24,-0.23 0.35,-0.565 0.33,-1.005l-0.24,-14.1l0.12,0l6.15,14.1c0.2,0.48 0.425,0.825 0.675,1.035c0.25,0.21 0.585,0.315 1.005,0.315l0.36,0c0.42,0 0.76,-0.105 1.02,-0.315c0.26,-0.21 0.48,-0.555 0.66,-1.035l6.18,-14.37l0.12,0l-0.27,14.37c0,0.44 0.115,0.775 0.345,1.005c0.23,0.23 0.565,0.345 1.005,0.345l0.69,0c0.44,0 0.775,-0.115 1.005,-0.345c0.23,-0.23 0.345,-0.565 0.345,-1.005l0,-17.94c0,-0.44 -0.115,-0.775 -0.345,-1.005c-0.23,-0.23 -0.565,-0.345 -1.005,-0.345l-1.65,0c-0.44,0 -0.82,0.115 -1.14,0.345c-0.32,0.23 -0.56,0.565 -0.72,1.005l-6.3,14.7l-0.09,0l-6.36,-14.7c-0.2,-0.44 -0.435,-0.775 -0.705,-1.005c-0.27,-0.23 -0.625,-0.345 -1.065,-0.345l-1.8,0c-0.44,0 -0.78,0.115 -1.02,0.345c-0.24,0.23 -0.36,0.565 -0.36,1.005l0,17.94Zm32.46,0c0,0.44 0.115,0.775 0.345,1.005c0.23,0.23 0.565,0.345 1.005,0.345l0.69,0c0.44,0 0.775,-0.115 1.005,-0.345c0.23,-0.23 0.345,-0.565 0.345,-1.005l0,-6.72l6.57,-10.92c0.3,-0.5 0.36,-0.9 0.18,-1.2c-0.18,-0.3 -0.49,-0.45 -0.93,-0.45l-0.78,0c-0.48,0 -0.84,0.1 -1.08,0.3c-0.24,0.2 -0.48,0.5 -0.72,0.9l-4.8,8.07l-0.12,0l-4.62,-8.07c-0.24,-0.4 -0.47,-0.7 -0.69,-0.9c-0.22,-0.2 -0.58,-0.3 -1.08,-0.3l-1.05,0c-0.44,0 -0.75,0.15 -0.93,0.45c-0.18,0.3 -0.12,0.7 0.18,1.2l6.48,11.04l0,6.6Zm19.59,0c0,0.44 0.12,0.775 0.36,1.005c0.24,0.23 0.58,0.345 1.02,0.345l10.8,0c0.4,0 0.7,-0.1 0.9,-0.3c0.2,-0.2 0.3,-0.49 0.3,-0.87l0,-0.54c0,-0.38 -0.1,-0.675 -0.3,-0.885c-0.2,-0.21 -0.5,-0.315 -0.9,-0.315l-8.79,0l0,-16.38c0,-0.44 -0.115,-0.775 -0.345,-1.005c-0.23,-0.23 -0.565,-0.345 -1.005,-0.345l-0.66,0c-0.44,0 -0.78,0.115 -1.02,0.345c-0.24,0.23 -0.36,0.565 -0.36,1.005l0,17.94Zm16.71,0c0,0.44 0.12,0.775 0.36,1.005c0.24,0.23 0.58,0.345 1.02,0.345l0.66,0c0.44,0 0.775,-0.115 1.005,-0.345c0.23,-0.23 0.345,-0.565 0.345,-1.005l0,-17.94c0,-0.44 -0.115,-0.775 -0.345,-1.005c-0.23,-0.23 -0.565,-0.345 -1.005,-0.345l-0.66,0c-0.44,0 -0.78,0.115 -1.02,0.345c-0.24,0.23 -0.36,0.565 -0.36,1.005l0,17.94Zm8.46,0c0,0.44 0.12,0.775 0.36,1.005c0.24,0.23 0.58,0.345 1.02,0.345l0.66,0c0.44,0 0.775,-0.115 1.005,-0.345c0.23,-0.23 0.345,-0.565 0.345,-1.005l0,-7.26l7.41,0c0.38,0 0.67,-0.1 0.87,-0.3c0.2,-0.2 0.3,-0.49 0.3,-0.87l0,-0.51c0,-0.38 -0.1,-0.665 -0.3,-0.855c-0.2,-0.19 -0.49,-0.285 -0.87,-0.285l-7.41,0l0,-6.33l9.6,0c0.38,0 0.67,-0.105 0.87,-0.315c0.2,-0.21 0.3,-0.505 0.3,-0.885l0,-0.51c0,-0.38 -0.1,-0.67 -0.3,-0.87c-0.2,-0.2 -0.49,-0.3 -0.87,-0.3l-11.61,0c-0.44,0 -0.78,0.115 -1.02,0.345c-0.24,0.23 -0.36,0.565 -0.36,1.005l0,17.94Zm17.58,0c0,0.44 0.12,0.775 0.36,1.005c0.24,0.23 0.58,0.345 1.02,0.345l12.15,0c0.38,0 0.675,-0.1 0.885,-0.3c0.21,-0.2 0.315,-0.49 0.315,-0.87l0,-0.51c0,-0.38 -0.105,-0.675 -0.315,-0.885c-0.21,-0.21 -0.505,-0.315 -0.885,-0.315l-10.14,0l0,-6.24l7.71,0c0.38,0 0.67,-0.095 0.87,-0.285c0.2,-0.19 0.3,-0.475 0.3,-0.855l0,-0.51c0,-0.38 -0.1,-0.665 -0.3,-0.855c-0.2,-0.19 -0.49,-0.285 -0.87,-0.285l-7.71,0l0,-5.85l9.87,0c0.4,0 0.7,-0.105 0.9,-0.315c0.2,-0.21 0.3,-0.505 0.3,-0.885l0,-0.51c0,-0.38 -0.1,-0.67 -0.3,-0.87c-0.2,-0.2 -0.5,-0.3 -0.9,-0.3l-11.88,0c-0.44,0 -0.78,0.115 -1.02,0.345c-0.24,0.23 -0.36,0.565 -0.36,1.005l0,17.94Z" style="fill:url(#_Linear7);"/><path id="Combined-Shape" d="M76.421,36.726c1.824,0 3.302,-1.478 3.302,-3.302c0,-1.823 -1.478,-3.302 -3.302,-3.302c-1.824,0 -3.302,1.479 -3.302,3.302c0,1.824 1.478,3.302 3.302,3.302Zm14.393,14.394c1.824,0 3.302,-1.479 3.302,-3.303c0,-1.823 -1.478,-3.302 -3.302,-3.302c-1.823,0 -3.302,1.479 -3.302,3.302c0,1.824 1.479,3.303 3.302,3.303Zm-14.393,14.393c1.824,0 3.302,-1.479 3.302,-3.302c0,-1.824 -1.478,-3.303 -3.302,-3.303c-1.824,0 -3.302,1.479 -3.302,3.303c0,1.823 1.478,3.302 3.302,3.302Zm-14.393,-14.393c1.824,0 3.302,-1.479 3.302,-3.303c0,-1.823 -1.478,-3.302 -3.302,-3.302c-1.824,0 -3.302,1.479 -3.302,3.302c0,1.824 1.478,3.303 3.302,3.303Zm22.236,-11.145c1.289,1.289 3.38,1.289 4.67,0c1.289,-1.29 1.289,-3.381 0,-4.67c-1.29,-1.29 -3.381,-1.29 -4.67,0c-1.29,1.289 -1.29,3.38 0,4.67Zm0,20.355c1.289,1.289 3.38,1.289 4.67,0c1.289,-1.29 1.289,-3.38 0,-4.67c-1.29,-1.29 -3.381,-1.29 -4.67,0c-1.29,1.29 -1.29,3.38 0,4.67Zm-20.355,0c1.289,1.289 3.38,1.289 4.67,0c1.289,-1.29 1.289,-3.38 0,-4.67c-1.29,-1.29 -3.381,-1.29 -4.67,0c-1.29,1.29 -1.29,3.38 0,4.67Zm0,-20.355c1.289,1.289 3.38,1.289 4.67,0c1.289,-1.29 1.289,-3.381 0,-4.67c-1.29,-1.29 -3.381,-1.29 -4.67,0c-1.29,1.289 -1.29,3.38 0,4.67Z" style="fill:#bca0ff;"/><circle id="Oval-10" cx="31.802" cy="83.302" r="4.096" style="fill:#df77ee;"/><circle id="Oval-101" serif:id="Oval-10" cx="448.787" cy="207.191" r="4.096" style="fill:#dfedf2;"/><circle id="Oval-102" serif:id="Oval-10" cx="475.339" cy="116.071" r="2.806" style="fill:#dfe8ee;"/></g><defs><linearGradient id="_Linear1" x1="0" y1="0" x2="1" y2="0" gradientUnits="userSpaceOnUse" gradientTransform="matrix(-114.223,-205.309,205.309,-114.223,275.755,300.124)"><stop offset="0" style="stop-color:#7875ff;stop-opacity:1"/><stop offset="1" style="stop-color:#f07ddb;stop-opacity:1"/></linearGradient><linearGradient id="_Linear2" x1="0" y1="0" x2="1" y2="0" gradientUnits="userSpaceOnUse" gradientTransform="matrix(248.189,0,0,61.733,127.581,321.979)"><stop offset="0" style="stop-color:#9d78f4;stop-opacity:1"/><stop offset="1" style="stop-color:#7875ff;stop-opacity:1"/></linearGradient><linearGradient id="_Linear3" x1="0" y1="0" x2="1" y2="0" gradientUnits="userSpaceOnUse" gradientTransform="matrix(248.189,0,0,61.733,127.581,321.979)"><stop offset="0" style="stop-color:#9d78f4;stop-opacity:1"/><stop offset="1" style="stop-color:#7875ff;stop-opacity:1"/></linearGradient><linearGradient id="_Linear4" x1="0" y1="0" x2="1" y2="0" gradientUnits="userSpaceOnUse" gradientTransform="matrix(248.189,0,0,61.733,127.581,321.979)"><stop offset="0" style="stop-color:#9d78f4;stop-opacity:1"/><stop offset="1" style="stop-color:#7875ff;stop-opacity:1"/></linearGradient><linearGradient id="_Linear5" x1="0" y1="0" x2="1" y2="0" gradientUnits="userSpaceOnUse" gradientTransform="matrix(248.189,0,0,61.733,127.581,321.979)"><stop offset="0" style="stop-color:#9d78f4;stop-opacity:1"/><stop offset="1" style="stop-color:#7875ff;stop-opacity:1"/></linearGradient><linearGradient id="_Linear6" x1="0" y1="0" x2="1" y2="0" gradientUnits="userSpaceOnUse" gradientTransform="matrix(83.2456,119.716,-119.716,83.2456,212.031,132.377)"><stop offset="0" style="stop-color:#f98bff;stop-opacity:1"/><stop offset="1" style="stop-color:#3463ff;stop-opacity:1"/></linearGradient><linearGradient id="_Linear7" x1="0" y1="0" x2="1" y2="0" gradientUnits="userSpaceOnUse" gradientTransform="matrix(91.5414,22.7021,-22.7021,91.5414,229.401,311.597)"><stop offset="0" style="stop-color:#fff;stop-opacity:1"/><stop offset="1" style="stop-color:#d6f5ff;stop-opacity:1"/></linearGradient></defs></svg>